<svg width="18" height="18" viewBox="0 0 18 18" fill="none" xmlns="http://www.w3.org/2000/svg">
<g clip-path="url(#clip0_3_1237)">
<path d="M1.9245 16.0747L2.96717 15.0321M15.0324 2.96751L16.0751 1.92486M7.21239 10.787L10.7873 7.21226M11.8506 4.042C11.8506 4.04192 11.8505 4.04184 11.8504 4.04177L10.5346 2.72529C10.3963 2.58695 10.2321 2.47721 10.0513 2.40234C9.87054 2.32747 9.67681 2.28894 9.48116 2.28894C9.28552 2.28894 9.09179 2.32747 8.91103 2.40234C8.73028 2.47721 8.56604 2.58695 8.4277 2.72529C8.28935 2.86363 8.17961 3.02786 8.10474 3.20861C8.02987 3.38936 7.99134 3.58309 7.99134 3.77873C7.99134 3.97437 8.02987 4.1681 8.10474 4.34885C8.17961 4.5296 8.28935 4.69383 8.4277 4.83217L13.1674 9.57173C13.4468 9.85112 13.8257 10.0081 14.2208 10.0081C14.616 10.0081 14.9949 9.85112 15.2743 9.57173C15.5537 9.29234 15.7107 8.9134 15.7107 8.51829C15.7107 8.12317 15.5537 7.74423 15.2743 7.46484L13.9578 6.1491M11.8504 4.04177C11.5712 3.7624 11.4145 3.3836 11.4145 2.98866C11.4146 2.59362 11.5716 2.21478 11.851 1.93548C12.1304 1.65619 12.5093 1.49933 12.9044 1.4994C13.2994 1.49947 13.6783 1.65647 13.9576 1.93586L16.0638 4.042C16.2021 4.18029 16.3118 4.34447 16.3867 4.52518C16.4616 4.70588 16.5002 4.89957 16.5002 5.09517C16.5003 5.29078 16.4618 5.48448 16.3869 5.66521C16.3121 5.84594 16.2024 6.01017 16.0641 6.14851C15.9258 6.28685 15.7616 6.39659 15.5809 6.47148C15.4002 6.54637 15.2065 6.58493 15.0109 6.58497C14.616 6.58504 14.2372 6.42826 13.9578 6.1491L13.9576 6.14888M4.04168 11.8511L4.04146 11.8509C3.76208 11.5717 3.38328 11.415 2.98832 11.415C2.59327 11.4151 2.21442 11.5721 1.93512 11.8515C1.65582 12.1309 1.49895 12.5098 1.49902 12.9048C1.49909 13.2999 1.6561 13.6787 1.93549 13.958L4.04168 16.0641C4.32098 16.3435 4.69983 16.5005 5.09489 16.5006C5.2905 16.5006 5.4842 16.4621 5.66494 16.3873C5.84567 16.3125 6.0099 16.2028 6.14825 16.0645C6.28659 15.9262 6.39634 15.762 6.47123 15.5813C6.54612 15.4006 6.58468 15.2069 6.58472 15.0113C6.58475 14.8157 6.54626 14.622 6.47143 14.4413C6.39664 14.2607 6.28703 14.0965 6.14884 13.9582M4.04146 11.8509L2.72494 10.5352C2.5866 10.3968 2.47686 10.2326 2.40199 10.0518C2.32712 9.87108 2.28858 9.67735 2.28858 9.48171C2.28858 9.28607 2.32712 9.09234 2.40199 8.91159C2.47686 8.73084 2.5866 8.56661 2.72494 8.42827C2.86329 8.28993 3.02752 8.18019 3.20828 8.10532C3.38903 8.03045 3.58276 7.99192 3.77841 7.99192C3.97406 7.99192 4.16779 8.03045 4.34854 8.10532C4.5293 8.18019 4.69353 8.28993 4.83188 8.42827L9.57155 13.1678C9.85095 13.4472 10.0079 13.8261 10.0079 14.2213C10.0079 14.6164 9.85095 14.9953 9.57155 15.2747C9.29215 15.5541 8.91321 15.7111 8.51808 15.7111C8.12296 15.7111 7.74401 15.5541 7.46461 15.2747L6.14884 13.9582C6.14877 13.9581 6.14869 13.9581 6.14862 13.958" stroke-width="2" stroke-linecap="round" stroke="#9296A8"/>
</g>
<defs>
<clipPath id="clip0_3_1237">
<rect width="18" height="18" fill="white"/>
</clipPath>
</defs>
</svg>
