<svg width="18" height="18" viewBox="0 0 18 18" fill="none" xmlns="http://www.w3.org/2000/svg">
<g clip-path="url(#clip0_4_918)">
<path d="M7.488 14.9681C7.48794 15.116 7.52702 15.2609 7.60088 15.3867C7.67474 15.5125 7.78044 15.6142 7.90613 15.6803L9.41833 16.4761C9.53364 16.5367 9.66175 16.5653 9.79052 16.5592C9.91928 16.553 10.0444 16.5124 10.154 16.441C10.2637 16.3696 10.3541 16.27 10.4169 16.1515C10.4796 16.0329 10.5125 15.8995 10.5124 15.7639V10.1935C10.5126 9.79907 10.6519 9.41879 10.9033 9.12634L16.3646 2.76894C16.4625 2.65479 16.5269 2.51324 16.55 2.36141C16.573 2.20958 16.5538 2.05396 16.4946 1.91339C16.4354 1.77281 16.3388 1.65329 16.2165 1.56928C16.0941 1.48527 15.9512 1.44037 15.8051 1.44H2.19528C2.04906 1.44006 1.90599 1.48474 1.7834 1.56863C1.66081 1.65252 1.56396 1.77202 1.50459 1.91266C1.44521 2.0533 1.42586 2.20904 1.44888 2.36102C1.47189 2.513 1.53628 2.65469 1.63426 2.76894L7.0971 9.12634C7.34853 9.41879 7.48783 9.79907 7.488 10.1935V14.9681Z" stroke-width="2" stroke-linecap="round" stroke="#9296A8"/>
</g>
<defs>
<clipPath id="clip0_4_918">
<rect width="18" height="18" fill="white"/>
</clipPath>
</defs>
</svg>
